# AST/ASF file generated using VICON BodyLanguage
# -----------------------------------------------
:version 1.10
:name VICON
:units
  mass 1.0
  length 0.45
  angle deg
:documentation
   .ast/.asf automatically generated from VICON data using
   VICON BodyBuilder and BodyLanguage model FoxedUp or BRILLIANT.MOD
:root
   order TX TY TZ RX RY RZ
   axis XYZ
   position 0 0 0  
   orientation 0 0 0 
:bonedata
  begin
     id 1 
     name lhipjoint
     direction 0.577973 -0.728611 0.367523 
     length 2.48544 
     axis 0 0 0  XYZ
  end
  begin
     id 2 
     name lfemur
     direction 0.34202 -0.939693 0  
     length 7.1921  
     axis 0 0 20  XYZ
    dof rx ry rz
    limits (-160.0 20.0)
           (-70.0 70.0)
           (-60.0 70.0)
  end
  begin
     id 3 
     name ltibia
     direction 0.34202 -0.939693 0   
     length 7.71059   
     axis 0 0 20   XYZ
    dof rx
    limits (-10.0 170.0)
  end
  begin
     id 4 
     name lfoot
     direction 0.089538 -0.246004 0.965124   
     length 2.19909   
     axis -90 7.62852e-016 20   XYZ
    dof rx rz
    limits (-45.0 90.0)
           (-70.0 20.0)
  end
  begin
     id 5 
     name ltoes
     direction 1.53544e-011 -4.21829e-011 1   
     length 1.10116   
     axis -90 7.62852e-016 20   XYZ
    dof rx
    limits (-90.0 20.0)
  end
  begin
     id 6 
     name rhipjoint
     direction -0.554414 -0.743062 0.374812   
     length 2.4371  
     axis 0 0 0  XYZ 
  end
  begin
     id 7 
     name rfemur
     direction -0.34202 -0.939693 0   
     length 7.47254   
     axis 0 0 -20   XYZ
    dof rx ry rz
    limits (-160.0 20.0)
           (-70.0 70.0)
           (-70.0 60.0)
  end
  begin
     id 8 
     name rtibia
     direction -0.34202 -0.939693 0   
     length 7.65855   
     axis 0 0 -20   XYZ
    dof rx
    limits (-10.0 170.0)
 end
 begin
     id 9 
     name rfoot
     direction -0.133779 -0.367555 0.92033   
     length 2.43006  
     axis -90 -7.62852e-016 -20   XYZ
    dof rx rz
    limits (-45.0 90.0)
           (-20.0 70.0)
  end
  begin
     id 10 
     name rtoes
     direction -1.53563e-011 -4.21889e-011 1   
     length 1.19625   
     axis -90 -7.62852e-016 -20   XYZ
    dof rx
    limits (-90.0 20.0)
  end
  begin
     id 11 
     name lowerback
     direction 0.0249066 0.998043 -0.0573585   
     length 2.08485   
     axis 0 0 0   XYZ
    dof rx ry rz
    limits (-20.0 45.0)
           (-30.0 30.0)
           (-30.0 30.0)
  end
  begin
     id 12 
     name upperback
     direction 0.0237884 0.999673 0.00943178   
     length 2.08515   
     axis 0 0 0   XYZ
    dof rx ry rz
    limits (-20.0 45.0)
           (-30.0 30.0)
           (-30.0 30.0)
  end
  begin
     id 13 
     name thorax
     direction 0.0106671 0.999301 0.0358174   
     length 2.09037   
     axis 0 0 0   XYZ
    dof rx ry rz
    limits (-20.0 45.0)
           (-30.0 30.0)
           (-30.0 30.0)
  end
  begin
     id 14 
     name lowerneck
     direction -0.0580016 0.987052 0.149546   
     length 1.84454   
     axis 0 0 0   XYZ
    dof rx ry rz
    limits (-20.0 45.0)
           (-30.0 30.0)
           (-30.0 30.0)
  end
  begin
     id 15 
     name upperneck
     direction 0.079456 0.981963 -0.171567   
     length 1.88141   
     axis 0 0 0   XYZ
    dof rx ry rz
    limits (-20.0 45.0)
           (-30.0 30.0)
           (-30.0 30.0)
  end
  begin
     id 16
     name head
     direction 0.0262167 0.9967 -0.0768276  
     length 1.89541  
     axis 0 0 0   XYZ
    dof rx ry rz
    limits (-20.0 45.0)
           (-30.0 30.0)
           (-30.0 30.0)
  end
  begin
     id 17 
     name lclavicle
     direction 0.946135 0.322134 -0.0325326  
     length 3.949  
     axis 0 0 0   XYZ
    dof ry rz
    limits (-20.0 10.0)
           (0.0 20.0)
  end
  begin
     id 18 
     name lhumerus
     direction 1 -4.48964e-011 1.94005e-028   
     length 5.10995   
     axis 180 -30 -90   XYZ
    dof rx ry rz
    limits (-60.0 90.0)
           (-90.0 90.0)
           (-90.0 90.0)
  end
  begin
     id 19
     name lradius
     direction 1 -4.48976e-011 2.87852e-027   
     length 3.21207   
     axis 180 -30 -90   XYZ
    dof rx
    limits (-10.0 170.0)
  end
  begin
     id 20
     name lwrist
     direction 1 -4.48963e-011 1.9975e-027   
     length 1.60604   
     axis 2.96054e-016 90 90   XYZ
    dof ry
    limits (-180.0 0.0)
 end
  begin
     id 21 
     name lhand
     direction 1 -4.48919e-011 4.00227e-027   
     length 0.63349   
     axis -2.5488e-015 90 90   XYZ
    dof rx rz
    limits (-90.0 90.0)
           (-45.0 45.0)
  end
  begin
     id 22 
     name lfingers
     direction 1 -4.49037e-011 7.9652e-027   
     length 0.510736   
     axis -5.0975e-015 90 90   XYZ
    dof rx
    limits (0.0 90.0)
  end
  begin
     id 23
     name lthumb
     direction 0.707107 -6.34922e-011 0.707107   
     length 0.733318   
     axis -90 45 -4.48553e-014   XYZ
    dof rx rz
    limits (-45.0 45.0)
           (-45.0 45.0)
  end
  begin
     id 24 
     name rclavicle
     direction -0.940085 0.328911 -0.0897654   
     length 3.93848  
     axis 0 0 0   XYZ 
    dof ry rz
    limits (-10.0 20.0)
           (-20.0 0.0)
  end
  begin
     id 25 
     name rhumerus
     direction -1 -4.48958e-011 3.02044e-027  
     length 5.25109   
     axis 180 30 90   XYZ
    dof rx ry rz
    limits (-90.0 60.0)
           (-90.0 90.0)
           (-90.0 90.0)
  end
  begin
     id 26 
     name rradius
     direction -1 -4.4897e-011 9.78352e-028   
     length 3.28364   
     axis 180 30 90   XYZ
    dof rx
    limits (-10.0 170.0)
  end
  begin
     id 27 
     name rwrist
     direction -1 -4.48943e-011 1.99918e-027   
     length 1.64182   
     axis 2.96054e-016 -90 -90   XYZ
    dof ry
    limits (-180.0 0.0)
  end
  begin
     id 28
     name rhand
     direction -1 -4.49024e-011 3.98478e-027   
     length 0.599745   
     axis -2.5488e-015 -90 -90   XYZ
    dof rx rz
    limits (-90.0 90.0)
           (-45.0 45.0)
  end
  begin
     id 29
     name rfingers
     direction -1 -4.48914e-011 8.00621e-027   
     length 0.48353   
     axis -5.0975e-015 -90 -90   XYZ
    dof rx
    limits (0.0 90.0)
  end
  begin
     id 30
     name rthumb
     direction -0.707107 -6.34992e-011 0.707107   
     length 0.694255   
     axis -90 -45 4.48553e-014   XYZ
    dof rx rz
    limits (-45.0 45.0)
           (-45.0 45.0)
  end
:hierarchy
  begin
    root lhipjoint rhipjoint lowerback
    lhipjoint lfemur
    lfemur ltibia
    ltibia lfoot
    lfoot ltoes
    rhipjoint rfemur
    rfemur rtibia
    rtibia rfoot
    rfoot rtoes
    lowerback upperback
    upperback thorax
    thorax lowerneck lclavicle rclavicle
    lowerneck upperneck
    upperneck head
    lclavicle lhumerus
    lhumerus lradius
    lradius lwrist
    lwrist lhand lthumb
    lhand lfingers
    rclavicle rhumerus
    rhumerus rradius
    rradius rwrist
    rwrist rhand rthumb
    rhand rfingers
  end

#!OML:ASF E:\CV Data\Top Level 1\Subject 1\Session 1\player.ASF
:FULLY-SPECIFIED
:DEGREES
222
root 14.5043 16.2444 -5.33342 -1.02267 -67.3289 9.03402
lowerback 7.63805 -0.0479069 -2.49204
upperback 0.688819 -0.232866 1.55358
thorax -3.55497 -0.0749546 3.03785
lowerneck -16.1331 8.06366 -3.90334
upperneck 19.4764 11.7556 1.32078
head 8.39692 5.35706 2.42591
rclavicle 1.5704e-014 2.38542e-015
rhumerus -33.752 38.2407 -99.9529
rradius 106.123
rwrist -3.63424
rhand -41.0391 32.2246
rfingers 7.12502
rthumb -13.9693 2.71387
lclavicle 1.5704e-014 2.38542e-015
lhumerus -36.4259 -40.858 112.19
lradius 109.455
lwrist 28.5696
lhand -37.4814 26.6518
lfingers 7.12502
lthumb -10.5391 56.3676
rfemur -50.2353 -8.6333 14.9421
rtibia 50.7935
rfoot -6.29859 -12.9956
rtoes 14.5866
lfemur 0.737904 1.92401 -21.9787
ltibia 31.0479
lfoot -26.6956 7.19037
ltoes -15.5799
223
root 14.5754 16.2278 -5.33209 -0.920127 -67.0082 8.74465
lowerback 7.64263 0.0318376 -2.47784
upperback 0.713096 -0.127878 1.49058
thorax -3.53993 -0.0239742 2.95307
lowerneck -16.1318 7.89853 -4.02053
upperneck 19.6127 11.5272 1.47621
head 8.43186 5.25244 2.4747
rclavicle 1.66979e-014 -7.95139e-015
rhumerus -33.9193 38.0491 -100.346
rradius 106.024
rwrist -3.17803
rhand -41.1146 32.5584
rfingers 7.12502
rthumb -14.0421 3.05274
lclavicle 1.66979e-014 -7.95139e-015
lhumerus -36.7047 -40.7929 112.193
lradius 109.571
lwrist 28.8128
lhand -37.7733 26.4936
lfingers 7.12502
lthumb -10.8206 56.1948
rfemur -50.2015 -8.79672 14.8597
rtibia 50.7445
rfoot -6.07808 -13.1702
rtoes 14.6873
lfemur 0.675566 1.99214 -21.9435
ltibia 31.0764
lfoot -27.2192 7.25664
ltoes -14.7178
224
root 14.6423 16.214 -5.33057 -0.724777 -66.6751 8.35314
lowerback 7.63287 0.104048 -2.42514
upperback 0.727431 -0.0289007 1.43899
thorax -3.52649 0.0237211 2.85905
lowerneck -16.1528 7.73073 -4.15083
upperneck 19.8025 11.2952 1.65644
head 8.48721 5.14566 2.53654
rclavicle 2.84262e-014 -1.74931e-014
rhumerus -34.1174 37.8826 -100.769
rradius 105.897
rwrist -2.68308
rhand -41.2199 32.854
rfingers 7.12502
rthumb -14.1435 3.35542
lclavicle 2.84262e-014 -1.74931e-014
lhumerus -37.0151 -40.7158 112.216
lradius 109.68
lwrist 29.0819
lhand -38.1488 26.2761
lfingers 7.12502
lthumb -11.1828 55.9581
rfemur -50.1212 -8.97338 14.8271
rtibia 50.6486
rfoot -5.8544 -13.3434
rtoes 14.7778
lfemur 0.608903 2.02328 -21.8577
ltibia 31.1237
lfoot -27.6654 7.35686
ltoes -14.1794
225
root 14.7047 16.2031 -5.32889 -0.506849 -66.331 7.93356
lowerback 7.60803 0.170888 -2.36562
upperback 0.731557 0.0641481 1.39412
thorax -3.51443 0.0686331 2.76881
lowerneck -16.1928 7.55986 -4.27841
upperneck 20.0362 11.0588 1.84117
head 8.5618 5.03573 2.60189
rclavicle 7.27552e-014 -1.19271e-014
rhumerus -34.3399 37.7185 -101.224
rradius 105.747
rwrist -2.17879
rhand -41.3674 33.1777
rfingers 7.12502
rthumb -14.2856 3.68912
lclavicle 7.27552e-014 -1.19271e-014
lhumerus -37.3644 -40.6175 112.292
lradius 109.767
lwrist 29.3076
lhand -38.5379 26.0571
lfingers 7.12502
lthumb -11.558 55.7184
rfemur -49.9969 -9.16514 14.8142
rtibia 50.515
rfoot -5.63087 -13.5132
rtoes 14.8566
lfemur 0.542561 2.01739 -21.7526
ltibia 31.1822
lfoot -28.0412 7.45602
ltoes -13.7904
226
root 14.7629 16.195 -5.32765 -0.265856 -65.9732 7.49858
lowerback 7.56953 0.238125 -2.30948
upperback 0.718537 0.158092 1.35531
thorax -3.51226 0.114533 2.6868
lowerneck -16.2417 7.38185 -4.41422
upperneck 20.2988 10.8121 2.03973
head 8.64774 4.92085 2.6737
rclavicle 1.19271e-015 5.56597e-015
rhumerus -34.6048 37.573 -101.691
rradius 105.593
rwrist -1.70577
rhand -41.5427 33.4912
rfingers 7.12502
rthumb -14.4546 4.0146
lclavicle 1.19271e-015 5.56597e-015
lhumerus -37.7465 -40.5283 112.399
lradius 109.846
lwrist 29.4463
lhand -38.9595 25.8969
lfingers 7.12502
lthumb -11.9646 55.535
rfemur -49.8501 -9.38073 14.8219
rtibia 50.3527
rfoot -5.41126 -13.6712
rtoes 14.9403
lfemur 0.469581 1.98908 -21.6333
ltibia 31.2445
lfoot -28.3423 7.59366
ltoes -13.677
227
root 14.8167 16.1891 -5.32708 -0.0560636 -65.6134 7.09763
lowerback 7.53057 0.307417 -2.29301
upperback 0.688438 0.251991 1.32713
thorax -3.52745 0.161587 2.63833
lowerneck -16.2933 7.20408 -4.56243
upperneck 20.5846 10.5678 2.2423
head 8.74226 4.8059 2.75028
rclavicle -2.77305e-014 -3.18055e-015
rhumerus -34.9238 37.4627 -102.17
rradius 105.445
rwrist -1.30391
rhand -41.7414 33.7983
rfingers 7.12502
rthumb -14.646 4.3355
lclavicle -2.77305e-014 -3.18055e-015
lhumerus -38.1728 -40.4295 112.572
lradius 109.904
lwrist 29.4587
lhand -39.3128 25.8053
lfingers 7.12502
lthumb -12.3053 55.4232
rfemur -49.6777 -9.60545 14.8269
rtibia 50.1695
rfoot -5.19895 -13.8192
rtoes 15.0297
lfemur 0.404211 1.97799 -21.5136
ltibia 31.3019
lfoot -28.58 7.73903
ltoes -13.8133
228
root 14.8664 16.1854 -5.32718 0.103883 -65.2538 6.75491
lowerback 7.49217 0.377363 -2.31483
upperback 0.640766 0.343632 1.29586
thorax -3.56109 0.208624 2.60858
lowerneck -16.3482 7.03111 -4.70583
upperneck 20.8828 10.3271 2.45046
head 8.84256 4.69343 2.82929
rclavicle 2.06736e-014 7.15625e-015
rhumerus -35.2951 37.3872 -102.672
rradius 105.315
rwrist -1.0008
rhand -41.9456 34.0869
rfingers 7.12502
rthumb -14.8428 4.63851
lclavicle 2.06736e-014 7.15625e-015
lhumerus -38.632 -40.3125 112.786
lradius 109.946
lwrist 29.3362
lhand -39.5901 25.8059
lfingers 7.12502
lthumb -12.5726 55.4076
rfemur -49.4874 -9.84262 14.82
rtibia 49.9707
rfoot -4.99301 -13.952
rtoes 15.118
lfemur 0.347958 1.94131 -21.4148
ltibia 31.3464
lfoot -28.7636 7.87047
ltoes -13.9716
229
root 14.912 16.1835 -5.32796 0.212878 -64.9062 6.47135
lowerback 7.44992 0.452997 -2.39406
upperback 0.580004 0.43857 1.27288
thorax -3.60686 0.258638 2.61951
lowerneck -16.4036 6.86384 -4.84791
upperneck 21.1809 10.0952 2.64988
head 8.94443 4.58442 2.9065
rclavicle 6.4605e-014 -7.95139e-015
rhumerus -35.7084 37.3545 -103.175
rradius 105.213
rwrist -0.807384
rhand -42.1401 34.3507
rfingers 7.12502
rthumb -15.0301 4.91623
lclavicle 6.4605e-014 -7.95139e-015
lhumerus -39.104 -40.1882 113.034
lradius 109.983
lwrist 29.1244
lhand -39.8396 25.8404
lfingers 7.12502
lthumb -12.8132 55.4271
rfemur -49.2843 -10.0777 14.7989
rtibia 49.7606
rfoot -4.7953 -14.0709
rtoes 15.1991
lfemur 0.310607 1.91266 -21.3323
ltibia 31.3705
lfoot -28.9042 7.97921
ltoes -14.1481
